<svg xmlns="http://www.w3.org/2000/svg" viewBox="0 0 760 520" role="img" aria-labelledby="title desc">
  <title id="title">Templates authority model</title>
  <desc id="desc">Composition contains Agent Skill and Web application artifact semantics plus reusable capabilities. Policy independently defines coding-agent operation. The Site publishes reviewed revisions of both through one validated portal.</desc>
  <defs>
    <linearGradient id="background" x1="38" y1="24" x2="724" y2="496" gradientUnits="userSpaceOnUse">
      <stop stop-color="#13253d"/>
      <stop offset="1" stop-color="#091322"/>
    </linearGradient>
    <linearGradient id="composition" x1="60" y1="54" x2="460" y2="336" gradientUnits="userSpaceOnUse">
      <stop stop-color="#123b48"/>
      <stop offset="1" stop-color="#10243a"/>
    </linearGradient>
    <linearGradient id="policy" x1="500" y1="54" x2="700" y2="336" gradientUnits="userSpaceOnUse">
      <stop stop-color="#30265a"/>
      <stop offset="1" stop-color="#181c3d"/>
    </linearGradient>
    <linearGradient id="site" x1="165" y1="385" x2="595" y2="475" gradientUnits="userSpaceOnUse">
      <stop stop-color="#12324e"/>
      <stop offset="1" stop-color="#18234c"/>
    </linearGradient>
    <linearGradient id="flow" x1="258" y1="322" x2="520" y2="419" gradientUnits="userSpaceOnUse">
      <stop stop-color="#3fe0c1"/>
      <stop offset=".48" stop-color="#45d4ff"/>
      <stop offset="1" stop-color="#9a78ff"/>
    </linearGradient>
    <pattern id="grid" width="36" height="36" patternUnits="userSpaceOnUse">
      <path d="M36 0H0v36" fill="none" stroke="#8aa4c7" stroke-width="1" opacity=".1"/>
    </pattern>
  </defs>

  <rect x="18" y="18" width="724" height="484" rx="36" fill="url(#background)"/>
  <rect x="18" y="18" width="724" height="484" rx="36" fill="url(#grid)"/>

  <rect x="58" y="52" width="408" height="286" rx="28" fill="url(#composition)" stroke="#45d4ff" stroke-width="2" opacity=".98"/>
  <circle cx="92" cy="86" r="8" fill="#45d4ff"/>
  <text x="110" y="91" fill="#dff7ff" font-family="system-ui,sans-serif" font-size="17" font-weight="800" letter-spacing="1.5">COMPOSITION AUTHORITY</text>
  <text x="88" y="126" fill="#91b8cf" font-family="system-ui,sans-serif" font-size="12" font-weight="700" letter-spacing="1.6">ARTIFACT SEMANTICS</text>

  <g transform="translate(88 146)">
    <rect width="160" height="94" rx="18" fill="#102f35" stroke="#3fe0c1" stroke-width="2"/>
    <rect x="18" y="20" width="34" height="38" rx="9" fill="#3fe0c1"/>
    <rect x="68" y="20" width="34" height="38" rx="9" fill="#3fe0c1" opacity=".72"/>
    <path d="M52 32h16M52 47h16" stroke="#e6fff9" stroke-width="4" stroke-linecap="round"/>
    <text x="80" y="79" text-anchor="middle" fill="#e6fff9" font-family="system-ui,sans-serif" font-size="16" font-weight="750">Agent Skill</text>
  </g>

  <g transform="translate(276 146)">
    <rect width="160" height="94" rx="18" fill="#142d4d" stroke="#4c89ff" stroke-width="2"/>
    <rect x="39" y="18" width="82" height="45" rx="9" fill="#4c89ff"/>
    <path d="M39 31h82" stroke="#eaf4ff" stroke-width="4"/>
    <rect x="49" y="40" width="18" height="15" rx="3" fill="#eaf4ff"/>
    <path d="M76 43h34M76 52h27" stroke="#eaf4ff" stroke-width="4" stroke-linecap="round" opacity=".9"/>
    <text x="80" y="79" text-anchor="middle" fill="#eaf4ff" font-family="system-ui,sans-serif" font-size="16" font-weight="750">Web application</text>
  </g>

  <rect x="88" y="266" width="348" height="44" rx="14" fill="#0c2138" stroke="#45d4ff" stroke-width="1.5" opacity=".96"/>
  <circle cx="111" cy="288" r="5" fill="#45d4ff"/>
  <text x="127" y="293" fill="#c8eaff" font-family="system-ui,sans-serif" font-size="12" font-weight="700" letter-spacing="1">REUSABLE CAPABILITIES · LIFECYCLE</text>

  <rect x="496" y="52" width="206" height="286" rx="28" fill="url(#policy)" stroke="#9a78ff" stroke-width="2"/>
  <circle cx="530" cy="86" r="8" fill="#9a78ff"/>
  <text x="548" y="91" fill="#f1ecff" font-family="system-ui,sans-serif" font-size="15" font-weight="800" letter-spacing="1.3">POLICY</text>
  <text x="530" y="126" fill="#bdb0eb" font-family="system-ui,sans-serif" font-size="12" font-weight="700" letter-spacing="1.5">INDEPENDENT AUTHORITY</text>

  <path d="M599 160 636 174v29c0 25-15 42-37 51-22-9-37-26-37-51v-29z" fill="#9a78ff"/>
  <path d="m582 203 12 12 25-31" fill="none" stroke="#fff" stroke-width="6" stroke-linecap="round" stroke-linejoin="round"/>
  <text x="599" y="282" text-anchor="middle" fill="#f1ecff" font-family="system-ui,sans-serif" font-size="15" font-weight="750">Coding-agent</text>
  <text x="599" y="303" text-anchor="middle" fill="#f1ecff" font-family="system-ui,sans-serif" font-size="15" font-weight="750">operation</text>

  <path d="M262 338v27c0 18 16 25 44 25h74" fill="none" stroke="url(#flow)" stroke-width="6" stroke-linecap="round"/>
  <path d="M599 338v27c0 18-16 25-44 25h-75" fill="none" stroke="url(#flow)" stroke-width="6" stroke-linecap="round"/>
  <path d="m380 390 15 10-15 10" fill="none" stroke="#45d4ff" stroke-width="5" stroke-linecap="round" stroke-linejoin="round"/>
  <path d="m480 390-15 10 15 10" fill="none" stroke="#8c75ff" stroke-width="5" stroke-linecap="round" stroke-linejoin="round"/>

  <rect x="164" y="405" width="432" height="72" rx="22" fill="url(#site)" stroke="#45d4ff" stroke-width="2"/>
  <circle cx="205" cy="441" r="14" fill="#45d4ff" opacity=".18"/>
  <path d="M198 441h14M205 434v14" stroke="#dff7ff" stroke-width="3.5" stroke-linecap="round"/>
  <text x="235" y="438" fill="#ecf8ff" font-family="system-ui,sans-serif" font-size="18" font-weight="800">SITE · VALIDATED PORTAL</text>
  <text x="235" y="458" fill="#9db8d3" font-family="system-ui,sans-serif" font-size="11" font-weight="700" letter-spacing="1.4">REVIEWED REVISIONS · LINKS · PROVENANCE · PAGES</text>
</svg>
